<?xml version="1.0" standalone="no"?>
<!DOCTYPE svg PUBLIC "-//W3C//DTD SVG 20010904//EN"
 "http://www.w3.org/TR/2001/REC-SVG-20010904/DTD/svg10.dtd">
<svg version="1.0" xmlns="http://www.w3.org/2000/svg"
 width="225.000000pt" height="225.000000pt" viewBox="0 0 225.000000 225.000000"
 preserveAspectRatio="xMidYMid meet">

<g transform="translate(0.000000,225.000000) scale(0.100000,-0.100000)"
fill="#000000" stroke="none">
<path d="M957 1811 c-122 -40 -239 -142 -291 -251 -31 -64 -31 -68 -34 -244
-3 -170 -3 -178 15 -171 10 4 26 10 36 12 14 4 17 17 17 74 0 38 3 69 7 69 4
0 16 -9 27 -19 30 -28 114 -68 166 -80 169 -39 357 41 437 187 10 17 20 32 24
32 4 0 48 -32 98 -71 l91 -70 0 -58 c0 -47 3 -60 18 -64 9 -2 25 -8 35 -12 18
-7 19 0 15 141 -3 143 -4 152 -35 216 -22 46 -52 88 -99 134 l-68 67 -1 61 0
61 -45 -5 c-56 -5 -95 -5 -240 4 -99 5 -123 4 -173 -13z"/>
<path d="M891 1101 c-16 -29 -14 -46 9 -66 41 -37 102 17 73 64 -16 25 -69 26
-82 2z"/>
<path d="M1281 1106 c-21 -26 -10 -69 22 -80 23 -8 31 -6 49 12 18 18 20 26
12 49 -7 21 -17 29 -40 31 -18 2 -36 -3 -43 -12z"/>
<path d="M857 546 c-140 -58 -272 -173 -332 -289 l-30 -58 25 -19 c74 -56 248
-126 392 -156 110 -23 323 -23 432 0 160 35 406 143 406 179 0 7 -17 41 -37
76 -69 115 -210 229 -343 276 l-41 15 7 -46 c14 -96 -51 -204 -141 -234 -92
-30 -197 8 -252 92 -24 36 -28 52 -28 115 0 40 0 73 0 73 0 0 -26 -11 -58 -24z"/>
</g>
</svg>
